# Alias OBJ Model File
# Exported from SketchUp, (c) 2000-2012 Trimble Navigation Limited
# File units = meters

mtllib cilindro.mtl

g Mesh1 Model

usemtl FrontColor
v 1.01108 2.8 -0.547437
vt 39.8061 21.5526
vn 0 1 -0
v 1.09067 2.8 -0.298814
vt 42.9397 11.7643
v 1.2319 2.8 -0.0792628
vt 48.4999 3.12058
v 1.42514 2.8 0.0962543
vt 56.1078 -3.78954
v 1.65722 2.8 0.215776
vt 65.245 -8.49513
v 1.91233 2.8 0.271158
vt 75.2887 -10.6755
v 2.17308 2.8 0.258625
vt 85.5545 -10.1821
v 2.42171 2.8 0.179032
vt 95.3428 -7.04852
v 2.64126 2.8 0.037803
vt 103.987 -1.48831
v 2.81677 2.8 -0.155438
vt 110.897 6.11961
v 2.9363 2.8 -0.387522
vt 115.602 15.2568
v 2.99168 2.8 -0.642632
vt 117.783 25.3005
v 2.97915 2.8 -0.903383
vt 117.289 35.5663
v 2.89955 2.8 -1.15201
vt 114.156 45.3546
v 2.75832 2.8 -1.37156
vt 108.595 53.9983
v 2.56508 2.8 -1.54707
vt 100.987 60.9084
v 2.333 2.8 -1.6666
vt 91.8503 65.614
v 2.07789 2.8 -1.72198
vt 81.8066 67.7944
v 1.81714 2.8 -1.70945
vt 71.5408 67.301
v 1.56851 2.8 -1.62985
vt 61.7525 64.1674
v 1.34896 2.8 -1.48862
vt 53.1088 58.6072
v 1.17345 2.8 -1.29538
vt 46.1987 50.9993
v 1.05392 2.8 -1.0633
vt 41.4931 41.8621
v 0.998542 2.8 -0.808188
vt 39.3127 31.8184
f 1/1/1 2/2/1 3/3/1 4/4/1 5/5/1 6/6/1 7/7/1 8/8/1 9/9/1 10/10/1 11/11/1 12/12/1 13/13/1 14/14/1 15/15/1 16/16/1 17/17/1 18/18/1 19/19/1 20/20/1 21/21/1 22/22/1 23/23/1 24/24/1 

vt 1.88783 110.236
vn -0.904442 0 0.426596
vt -8.38982 110.236
vn -0.984035 0 0.177973
v 1.01108 -0.02 -0.547437
vt -8.38982 -0.787402
v 1.09067 -0.02 -0.298814
vt 1.88783 -0.787402
f 2/25/2 1/26/3 25/27/3 26/28/2 

vt -19.6167 110.236
vt -29.8944 110.236
vn -0.996568 0 -0.082778
v 0.998542 -0.02 -0.808188
vt -29.8944 -0.787402
vt -19.6167 -0.787402
f 1/29/3 24/30/4 27/31/4 25/32/3 

vt -39.4343 110.236
vt -49.7119 110.236
vn -0.941186 0 -0.337888
v 1.05392 -0.02 -1.0633
vt -49.7119 -0.787402
vt -39.4343 -0.787402
f 24/33/4 23/34/5 28/35/5 27/36/4 

vt -56.2142 110.236
vt -66.4919 110.236
vn -0.821664 0 -0.569972
v 1.17345 -0.02 -1.29538
vt -66.4919 -0.787402
vt -56.2142 -0.787402
f 23/37/5 22/38/6 29/39/6 28/40/5 

vt -68.813 110.236
vt -79.0907 110.236
vn -0.646147 0 -0.763213
v 1.34896 -0.02 -1.48862
vt -79.0907 -0.787402
vt -68.813 -0.787402
f 22/41/6 21/42/7 30/43/7 29/44/6 

vt -76.3722 110.236
vt -86.6498 110.236
vn -0.426596 0 -0.904442
v 1.56851 -0.02 -1.62985
vt -86.6498 -0.787402
vt -76.3722 -0.787402
f 21/45/7 20/46/8 31/47/8 30/48/7 

vt -78.3765 110.236
vt -88.6541 110.236
vn -0.177973 0 -0.984035
v 1.81714 -0.02 -1.70945
vt -88.6541 -0.787402
vt -78.3765 -0.787402
f 20/49/8 19/50/9 32/51/9 31/52/8 

vt -74.6893 110.236
vt -84.967 110.236
vn 0.082778 0 -0.996568
v 2.07789 -0.02 -1.72198
vt -84.967 -0.787402
vt -74.6893 -0.787402
f 19/53/9 18/54/10 33/55/10 32/56/9 

vt -65.5621 110.236
vt -75.8397 110.236
vn 0.337888 0 -0.941186
v 2.333 -0.02 -1.6666
vt -75.8397 -0.787402
vt -65.5621 -0.787402
f 18/57/10 17/58/11 34/59/11 33/60/10 

vt -51.6166 110.236
vt -61.8943 110.236
vn 0.569972 0 -0.821664
v 2.56508 -0.02 -1.54707
vt -61.8943 -0.787402
vt -51.6166 -0.787402
f 17/61/11 16/62/12 35/63/12 34/64/11 

vt -33.8034 110.236
vt -44.081 110.236
vn 0.763213 0 -0.646147
v 2.75832 -0.02 -1.37156
vt -44.081 -0.787402
vt -33.8034 -0.787402
f 16/65/12 15/66/13 36/67/13 35/68/12 

vt -13.3363 110.236
vt -23.614 110.236
vn 0.904442 0 -0.426596
v 2.89955 -0.02 -1.15201
vt -23.614 -0.787402
vt -13.3363 -0.787402
f 15/69/13 14/70/14 37/71/14 36/72/13 

vt 8.38982 110.236
vt -1.88783 110.236
vn 0.984035 0 -0.177973
v 2.97915 -0.02 -0.903383
vt -1.88783 -0.787402
vt 8.38982 -0.787402
f 14/73/14 13/74/15 38/75/15 37/76/14 

vt 29.8944 110.236
vt 19.6167 110.236
vn 0.996568 0 0.082778
v 2.99168 -0.02 -0.642632
vt 19.6167 -0.787402
vt 29.8944 -0.787402
f 13/77/15 12/78/16 39/79/16 38/80/15 

vt 49.7119 110.236
vt 39.4343 110.236
vn 0.941186 0 0.337888
v 2.9363 -0.02 -0.387522
vt 39.4343 -0.787402
vt 49.7119 -0.787402
f 12/81/16 11/82/17 40/83/17 39/84/16 

vt 66.4919 110.236
vt 56.2142 110.236
vn 0.821664 0 0.569972
v 2.81677 -0.02 -0.155438
vt 56.2142 -0.787402
vt 66.4919 -0.787402
f 11/85/17 10/86/18 41/87/18 40/88/17 

vt 79.0907 110.236
vt 68.813 110.236
vn 0.646147 0 0.763213
v 2.64126 -0.02 0.037803
vt 68.813 -0.787402
vt 79.0907 -0.787402
f 10/89/18 9/90/19 42/91/19 41/92/18 

vt 86.6498 110.236
vt 76.3722 110.236
vn 0.426596 0 0.904442
v 2.42171 -0.02 0.179032
vt 76.3722 -0.787402
vt 86.6498 -0.787402
f 9/93/19 8/94/20 43/95/20 42/96/19 

vt 88.6541 110.236
vt 78.3765 110.236
vn 0.177973 0 0.984035
v 2.17308 -0.02 0.258625
vt 78.3765 -0.787402
vt 88.6541 -0.787402
f 8/97/20 7/98/21 44/99/21 43/100/20 

vt 84.967 110.236
vt 74.6893 110.236
vn -0.082778 0 0.996568
v 1.91233 -0.02 0.271158
vt 74.6893 -0.787402
vt 84.967 -0.787402
f 7/101/21 6/102/22 45/103/22 44/104/21 

vt 75.8397 110.236
vt 65.5621 110.236
vn -0.337888 0 0.941186
v 1.65722 -0.02 0.215776
vt 65.5621 -0.787402
vt 75.8397 -0.787402
f 6/105/22 5/106/23 46/107/23 45/108/22 

vt 61.8943 110.236
vt 51.6166 110.236
vn -0.569972 0 0.821664
v 1.42514 -0.02 0.0962543
vt 51.6166 -0.787402
vt 61.8943 -0.787402
f 5/109/23 4/110/24 47/111/24 46/112/23 

vt 44.081 110.236
vt 33.8034 110.236
vn -0.763213 0 0.646147
v 1.2319 -0.02 -0.0792628
vt 33.8034 -0.787402
vt 44.081 -0.787402
f 4/113/24 3/114/25 48/115/25 47/116/24 

vt 23.614 110.236
vt 13.3363 110.236
vt 13.3363 -0.787402
vt 23.614 -0.787402
f 3/117/25 2/118/2 26/119/2 48/120/25 

vt -42.9397 11.7643
vn 0 -1 -0
vt -39.8061 21.5526
vt -39.3127 31.8184
vt -41.4931 41.8621
vt -46.1987 50.9993
vt -53.1088 58.6072
vt -61.7525 64.1674
vt -71.5408 67.301
vt -81.8066 67.7944
vt -91.8503 65.614
vt -100.987 60.9084
vt -108.595 53.9983
vt -114.156 45.3546
vt -117.289 35.5663
vt -117.783 25.3005
vt -115.602 15.2568
vt -110.897 6.11961
vt -103.987 -1.48831
vt -95.3428 -7.04852
vt -85.5545 -10.1821
vt -75.2887 -10.6755
vt -65.245 -8.49513
vt -56.1078 -3.78954
vt -48.4999 3.12058
f 26/121/26 25/122/26 27/123/26 28/124/26 29/125/26 30/126/26 31/127/26 32/128/26 33/129/26 34/130/26 35/131/26 36/132/26 37/133/26 38/134/26 39/135/26 40/136/26 41/137/26 42/138/26 43/139/26 44/140/26 45/141/26 46/142/26 47/143/26 48/144/26 

